<?xml version="1.0" encoding="UTF-8" standalone="no"?>
<!-- Generator: Adobe Illustrator 22.0.1, SVG Export Plug-In . SVG Version: 6.00 Build 0)  -->

<svg
   version="1.1"
   id="Calque_1"
   x="0px"
   y="0px"
   viewBox="0 0 414.31767 335.75454"
   xml:space="preserve"
   width="414.31766"
   height="335.75455"
   xmlns="http://www.w3.org/2000/svg"
   xmlns:svg="http://www.w3.org/2000/svg"><defs
   id="defs304" />
<style
   type="text/css"
   id="style177">
	.st0{fill:#040404;stroke:#000000;stroke-miterlimit:10;}
	.st1{fill:#F98C10;stroke:#F98C10;stroke-miterlimit:10;}
	.st2{fill:#F98C10;stroke:#000000;stroke-miterlimit:10;}
	.st3{fill:#FFFFFF;stroke:#FFFFFF;stroke-miterlimit:10;}
	.st4{fill:#F48C15;stroke:#F48C15;stroke-miterlimit:10;}
	.st5{fill:#F18C19;stroke:#F18C19;stroke-miterlimit:10;}
	.st6{fill:#FEFDFD;stroke:#FFFFFF;stroke-miterlimit:10;}
	.st7{fill:#F48C15;stroke:#F18C19;stroke-miterlimit:10;}
	.st8{fill:#F98C10;}
</style>
<g
   id="g299"
   transform="translate(-90.541461,-253.02265)"
   style="display:inline">
	<polygon
   class="st0"
   points="167,488.3 167,495.9 297,569.7 426.9,495.3 426.9,488.5 "
   id="polygon179" />
	<polygon
   class="st0"
   points="167,426.6 167.1,345.7 296.9,270.8 426.9,346.2 426.9,426.6 "
   id="polygon181" />
	<g
   id="g191">
		<path
   class="st1"
   d="m 269.7,497.9 h -7 v -2.5 h 16.9 v 2.5 h -7 v 20.4 h -3 v -20.4 z"
   id="path183" />
		<path
   class="st1"
   d="m 281.6,514.7 c 1.3,0.8 3.3,1.5 5.3,1.5 3,0 4.8,-1.6 4.8,-3.9 0,-2.1 -1.2,-3.4 -4.3,-4.6 -3.7,-1.3 -6,-3.3 -6,-6.5 0,-3.6 3,-6.2 7.4,-6.2 2.3,0 4,0.5 5.1,1.1 l -0.8,2.4 c -0.7,-0.4 -2.3,-1.1 -4.3,-1.1 -3.1,0 -4.3,1.9 -4.3,3.4 0,2.1 1.4,3.2 4.6,4.4 3.9,1.5 5.8,3.4 5.8,6.7 0,3.5 -2.6,6.6 -8,6.6 -2.2,0 -4.6,-0.6 -5.8,-1.5 z"
   id="path185" />
		<path
   class="st1"
   d="m 298.3,514.7 c 1.3,0.8 3.3,1.5 5.3,1.5 3,0 4.8,-1.6 4.8,-3.9 0,-2.1 -1.2,-3.4 -4.3,-4.6 -3.7,-1.3 -6,-3.3 -6,-6.5 0,-3.6 3,-6.2 7.4,-6.2 2.3,0 4,0.5 5.1,1.1 l -0.8,2.4 c -0.7,-0.4 -2.3,-1.1 -4.3,-1.1 -3.1,0 -4.3,1.9 -4.3,3.4 0,2.1 1.4,3.2 4.6,4.4 3.9,1.5 5.8,3.4 5.8,6.7 0,3.5 -2.6,6.6 -8,6.6 -2.2,0 -4.6,-0.6 -5.8,-1.5 z"
   id="path187" />
		<path
   class="st1"
   d="m 315.5,495.7 c 1.5,-0.3 3.6,-0.5 5.7,-0.5 3.2,0 5.2,0.6 6.6,1.9 1.2,1 1.8,2.6 1.8,4.3 0,3 -1.9,5 -4.3,5.8 v 0.1 c 1.8,0.6 2.8,2.2 3.4,4.6 0.7,3.2 1.3,5.4 1.8,6.3 h -3.1 c -0.4,-0.6 -0.9,-2.6 -1.5,-5.5 -0.7,-3.2 -1.9,-4.3 -4.6,-4.4 h -2.8 v 9.9 h -3 z m 2.9,10.4 h 3 c 3.2,0 5.2,-1.7 5.2,-4.3 0,-3 -2.1,-4.2 -5.3,-4.3 -1.4,0 -2.4,0.1 -2.9,0.3 z"
   id="path189" />
	</g>
	<g
   id="g207">
		<path
   class="st1"
   d="m 226.4,380.3 c 1.4,0.9 3.6,1.6 5.8,1.6 3.3,0 5.2,-1.7 5.2,-4.3 0,-2.3 -1.3,-3.7 -4.7,-5 -4.1,-1.4 -6.6,-3.6 -6.6,-7.1 0,-3.9 3.2,-6.8 8.1,-6.8 2.6,0 4.4,0.6 5.5,1.2 l -0.9,2.6 c -0.8,-0.4 -2.5,-1.2 -4.7,-1.2 -3.4,0 -4.7,2 -4.7,3.7 0,2.3 1.5,3.5 5,4.8 4.2,1.6 6.4,3.7 6.4,7.3 0,3.9 -2.9,7.2 -8.7,7.2 -2.4,0 -5,-0.7 -6.4,-1.6 z"
   id="path193" />
		<path
   class="st1"
   d="m 248.4,359.3 v 25 h -3.2 v -25 z"
   id="path195" />
		<path
   class="st1"
   d="m 275,373.3 c -0.2,-3.5 -0.4,-7.7 -0.4,-10.8 h -0.1 c -0.9,2.9 -1.9,6 -3.1,9.5 l -4.4,12.1 h -2.4 l -4,-11.9 c -1.2,-3.5 -2.2,-6.7 -2.9,-9.7 h -0.1 c -0.1,3.1 -0.3,7.3 -0.5,11 l -0.7,10.7 h -3.1 l 1.7,-25 h 4.1 l 4.3,12.1 c 1,3.1 1.9,5.8 2.5,8.4 h 0.1 c 0.6,-2.5 1.5,-5.3 2.6,-8.4 l 4.4,-12.1 h 4.1 l 1.6,25 h -3.1 z"
   id="path197" />
		<path
   class="st1"
   d="m 283.8,359.6 c 1.6,-0.3 3.6,-0.5 6.2,-0.5 3.2,0 5.5,0.7 7,2.1 1.4,1.2 2.2,3 2.2,5.2 0,2.3 -0.7,4 -1.9,5.3 -1.7,1.8 -4.5,2.7 -7.6,2.7 -1,0 -1.9,0 -2.6,-0.2 v 10 h -3.2 v -24.6 z m 3.2,12 c 0.7,0.2 1.6,0.3 2.7,0.3 3.9,0 6.3,-1.9 6.3,-5.3 0,-3.3 -2.3,-4.9 -5.9,-4.9 -1.4,0 -2.5,0.1 -3,0.3 v 9.6 z"
   id="path199" />
		<path
   class="st1"
   d="m 303.5,359.3 h 3.2 v 22.3 h 10.7 v 2.7 h -13.9 z"
   id="path201" />
		<path
   class="st1"
   d="m 340.8,371.5 c 0,8.6 -5.2,13.1 -11.6,13.1 -6.6,0 -11.2,-5.1 -11.2,-12.7 0,-7.9 4.9,-13.1 11.6,-13.1 6.8,0.1 11.2,5.3 11.2,12.7 z m -19.3,0.4 c 0,5.3 2.9,10.1 8,10.1 5.1,0 8,-4.7 8,-10.4 0,-5 -2.6,-10.1 -8,-10.1 -5.4,0 -8,5 -8,10.4 z"
   id="path203" />
		<path
   class="st1"
   d="m 345,384.3 v -25 h 3.5 l 8,12.6 c 1.9,2.9 3.3,5.6 4.5,8.1 h 0.1 c -0.3,-3.3 -0.4,-6.4 -0.4,-10.3 v -10.4 h 3 v 25 h -3.3 l -7.9,-12.7 c -1.7,-2.8 -3.4,-5.6 -4.7,-8.3 h -0.1 c 0.2,3.1 0.3,6.1 0.3,10.3 v 10.7 z"
   id="path205" />
	</g>
	<polygon
   class="st2"
   points="149.8,488.3 167,488.3 445.3,488.5 445.3,434.5 445.3,426.6 436.9,426.6 436.1,426.6 401.1,426.6 149.8,426.6 149.8,434.7 "
   id="polygon209" />
	<polygon
   class="st2"
   points="120.9,465.7 91.7,434.8 149.8,434.7 149.8,488.3 152.3,488.5 152.3,496.7 91.7,496.7 "
   id="polygon211" />
	<polygon
   class="st2"
   points="443.1,496.6 503.7,496.6 474.6,465.7 503.7,435 445.3,434.8 445.3,442.6 445.3,488.8 443.1,488.8 "
   id="polygon213" />
	<line
   class="st3"
   x1="166.60001"
   y1="481.5"
   x2="428.60001"
   y2="481.5"
   id="line215" />
	<line
   class="st3"
   x1="166.60001"
   y1="433.39999"
   x2="428.60001"
   y2="433.39999"
   id="line217" />
	<polygon
   class="st2"
   points="296.9,253.6 441.2,336.9 441.5,426.6 437.4,426.6 437.6,340.1 296.9,259.2 156.2,339.8 156.2,426.6 151.6,426.6 151.6,337.5 "
   id="polygon219" />
	<polygon
   class="st2"
   points="296.9,588.2 441.5,504.8 441.5,488.5 437,488.5 437.1,501.7 296.9,582.5 157,501.7 157,488.3 152.3,488.5 152.3,504.8 "
   id="polygon221" />
	<polygon
   class="st1"
   points="297.6,268.9 428.7,345 428.7,426.6 427.5,426.6 427.6,346.2 297.6,270.8 167.8,345.7 167.6,426.6 166.4,426.6 166.4,345 "
   id="polygon223" />
	<polygon
   class="st2"
   points="297,569.7 167,495.9 167,494.5 167,488.3 165.8,488.3 165.8,496.7 296.9,572.3 428.1,496.5 428.1,488.5 426.9,488.5 426.9,495.3 "
   id="polygon225" />
	<polygon
   class="st4"
   points="403.6,358.4 379.3,343.7 392.4,356.2 378.8,360.2 403.6,374.1 390.6,362.1 "
   id="polygon227" />
	<polygon
   class="st4"
   points="185.7,381.6 210,366.8 196.9,379.3 210.5,383.3 185.7,397.3 198.7,385.3 "
   id="polygon229" />
	<path
   class="st5"
   d="m 258.4,547.8 0.2,-14.8 c 0,0 -1.4,-5 -4.1,-5.1 -2.7,-0.1 -5.3,-0.8 -6,-2 -0.7,-1.2 -1.9,-2 -2.3,-4.6 l -0.4,-2.4 c 0,0 -2.2,-0.6 -2.2,-2.4 0,-2.1 1.4,-2.5 2.5,-2.5 1.1,0 2.3,0.4 2.4,2.1 0,1.5 -1.5,2.5 -1.5,2.5 0,0 0,2.1 1.5,4.8 1.5,2.7 2.6,2.7 6.3,3.2 3.7,0.6 5.1,6 5.1,6 v 16"
   id="path231" />
	<path
   class="st5"
   d="m 308.2,426.4 0.2,-14.8 c 0,0 -1.4,-5 -4.1,-5.1 -2.7,-0.1 -5.3,-0.8 -6,-2 -0.7,-1.2 -1.9,-2 -2.3,-4.6 l -0.4,-2.4 c 0,0 -2.2,-0.6 -2.2,-2.4 0,-2.1 1.4,-2.5 2.5,-2.5 1.1,0 2.3,0.4 2.4,2.1 0,1.5 -1.5,2.5 -1.5,2.5 0,0 0,2.1 1.5,4.8 1.4,2.7 2.6,2.7 6.3,3.2 3.7,0.6 5.1,6 5.1,6 v 16"
   id="path233" />
	<path
   class="st5"
   d="m 303.5,566 -0.3,-14.8 c 0,0 1.7,-5 5,-5.1 3.3,-0.1 6.5,-0.8 7.4,-2 0.9,-1.2 2.4,-2 2.8,-4.6 l 0.5,-2.4 c 0,0 2.7,-0.6 2.8,-2.4 0,-2.1 -1.7,-2.5 -3.1,-2.5 -1.4,0 -2.9,0.4 -2.9,2.1 0,1.5 1.8,2.5 1.8,2.5 0,0 0,2.1 -1.8,4.8 -1.8,2.7 -3.2,2.7 -7.9,3.2 -4.6,0.6 -6.4,6 -6.4,6 v 16"
   id="path235" />
	<path
   class="st5"
   d="m 356.1,513.9 v 22 l -1.4,0.8 v -22.8 c 0,0 -1.6,-0.9 -1.6,-2 0,-1.1 0.9,-2.8 2.2,-2.4 1.3,0.4 1.5,0.2 2,1 0.5,0.8 0.5,1.3 0.5,1.6 -0.1,0.3 -0.9,1.5 -1.7,1.8 z"
   id="path237" />
	<path
   class="st5"
   d="m 384.7,403.8 v 22 l -1.4,0.8 v -22.8 c 0,0 -1.6,-0.9 -1.6,-2 0,-1.1 0.9,-2.8 2.2,-2.4 1.3,0.4 1.5,0.2 2,1 0.5,0.8 0.5,1.3 0.5,1.6 -0.1,0.4 -0.9,1.5 -1.7,1.8 z"
   id="path239" />
	<path
   class="st4"
   d="m 233,403.8 v 22 l -1.4,0.8 v -22.8 c 0,0 -1.6,-0.9 -1.6,-2 0,-1.1 0.9,-2.8 2.2,-2.4 1.3,0.4 1.5,0.2 2,1 0.5,0.8 0.5,1.3 0.5,1.6 0,0.4 -0.8,1.5 -1.7,1.8 z"
   id="path241" />
	<path
   class="st5"
   d="m 303.1,525.9 v 22 l -1.4,0.8 v -22.8 c 0,0 -1.6,-0.9 -1.6,-2 0,-1.1 0.9,-2.8 2.2,-2.4 1.3,0.4 1.5,0.2 2,1 0.5,0.8 0.5,1.3 0.5,1.6 0,0.3 -0.8,1.5 -1.7,1.8 z"
   id="path243" />
	<polygon
   class="st5"
   points="303.1,548.2 301.7,550.8 301.7,549 "
   id="polygon245" />
	<path
   class="st5"
   d="M 378.1,490.9 V 523 l -1.3,1 v -23.1 c 0,0 -1.6,-5.8 -4.6,-8.9 -3,-3.2 -3.8,-3.4 -3.8,-3.4 h 1.9 l 3,3.1 c 0,0 2.1,2.5 2.8,4.3 0.7,1.8 0.8,2 0.8,2 0,0 0,-6.5 0.4,-7.9 l 0.3,-1.4 h 1 z"
   id="path247" />
	<path
   class="st5"
   d="m 338.4,491.2 c 0,0.9 1,1.5 1,1.5 1.3,1 3.1,0 3,0 -0.1,0 0.7,-0.7 0.7,-0.7 0.4,-1.1 0,-1.9 0,-1.9 -0.6,-1.1 -1.8,-1.1 -1.8,-1.1 v -0.5 h -0.8 v 0.5 c 0,0 -1.1,0.1 -1.5,0.5 -0.4,0.4 -0.6,0.8 -0.6,1.7 z"
   id="path249" />
	<path
   class="st5"
   d="m 282.3,488.4 c 0,0 -0.3,1.1 -1,1.3 0,0 -0.5,0.5 -1.3,0.5 0,0 -1.1,0.1 -1.5,-0.3 0,0 -0.5,-0.3 -0.7,-0.6 -0.2,-0.3 -0.2,-0.7 -0.2,-0.7 v -0.1 h 4.7 z"
   id="path251" />
	<path
   class="st5"
   d="m 218.5,525.1 v -17.7 c 0,0 -0.1,-2.1 0.9,-3.2 1,-1.1 2.8,-2.6 2.8,-2.6 0,0 2.7,-1.5 4.8,-1.2 0,0 1.2,0 1.8,-0.4 0.6,-0.4 2.6,-2.8 3,-5.2 0,0 0.7,-5.4 0.6,-6.1 v -0.4 h -1.1 c 0,0 0.2,3.9 -0.6,6.2 0,0 -1.2,4.6 -3.8,4.9 0,0 -4.7,-0.5 -6.5,1.9 0,0 -3,2.1 -3,5.4 v 17.8 z"
   id="path253" />
	
	<polygon
   class="st5"
   points="383.3,426.6 384.8,426.6 384.7,425.8 "
   id="polygon275" />
	<polygon
   class="st7"
   points="233,425.8 233.1,426.6 231.7,426.6 "
   id="polygon277" />
	<g
   id="g281">
		<path
   class="st8"
   d="m 297.6,300.3 c 6.9,0 12.5,5.6 12.5,12.5 0,6.9 -5.6,12.5 -12.5,12.5 -6.9,0 -12.5,-5.6 -12.5,-12.5 0,-6.9 5.5,-12.5 12.5,-12.5 m 0,-4 c -9.1,0 -16.5,7.4 -16.5,16.5 0,9.1 7.4,16.5 16.5,16.5 9.1,0 16.5,-7.4 16.5,-16.5 0,-9.1 -7.4,-16.5 -16.5,-16.5 z"
   id="path279" />
	</g>
	<g
   id="g287">
		<rect
   x="294.89999"
   y="314.70001"
   class="st8"
   width="5.3000002"
   height="5.3000002"
   id="rect283" />
		<polygon
   class="st8"
   points="300.2,314.7 294.9,314.7 294.9,319.9 300.2,319.9 "
   id="polygon285" />
	</g>
	<g
   id="g293">
		<rect
   x="294.89999"
   y="305.5"
   class="st8"
   width="5.3000002"
   height="5.3000002"
   id="rect289" />
		<polygon
   class="st8"
   points="300.2,305.5 294.9,305.5 294.9,310.7 300.2,310.7 "
   id="polygon291" />
	</g>
	<polygon
   class="st0"
   points="157,488.3 165.8,488.3 165.8,496.7 296.9,572.3 428.1,496.5 428.1,488.5 437,488.5 437.1,501.7 296.9,582.5 157,501.7 "
   id="polygon295" />
	<polygon
   class="st0"
   points="156.2,426.6 165.8,426.6 165.8,345 297,268.9 428.1,345 428.1,426.6 437.5,426.6 437.6,340.1 296.9,259.2 156.2,339.8 "
   id="polygon297" />
<text
   xml:space="preserve"
   style="font-size:53.3333px;fill:#000000"
   x="231.25487"
   y="476.43143"
   id="text525"><tspan
     id="tspan523"
     x="231.25487"
     y="476.43143"
     style="font-style:normal;font-variant:normal;font-weight:normal;font-stretch:normal;font-size:53.3333px;font-family:'Liberation Sans';-inkscape-font-specification:'Liberation Sans';fill:#ffffff">PRF5</tspan></text></g>
</svg>
